<?xml version="1.0" encoding="utf-8"?>
<!-- Generator: Adobe Illustrator 26.0.1, SVG Export Plug-In . SVG Version: 6.00 Build 0)  -->
<svg version="1.1" id="prefix__Brand" xmlns="http://www.w3.org/2000/svg" xmlns:xlink="http://www.w3.org/1999/xlink" x="0px"
	 y="0px" viewBox="0 0 225 25" style="enable-background:new 0 0 225 25;" xml:space="preserve">
<style type="text/css">
	.st0{fill:#C4C4C4;}
	.st1{fill:#FFFFFF;}
</style>
<path id="prefix__Path_6225" class="st0" d="M129.1,14.1c1.3,0.1,2.5-0.8,2.6-2.2c0-0.1,0-0.3,0-0.4v-1.4h-1.3v1.4
	c0.1,0.7-0.4,1.3-1.1,1.4c-0.1,0-0.1,0-0.2,0h-3.6c-0.7,0-1.3-0.5-1.3-1.2c0-0.1,0-0.1,0-0.2v-8c-0.1-0.7,0.4-1.3,1.1-1.4
	c0.1,0,0.1,0,0.2,0h3.6c0.7,0,1.3,0.5,1.3,1.2c0,0.1,0,0.1,0,0.2v1.4h1.3V3.6c0.1-1.3-0.8-2.5-2.2-2.6c-0.1,0-0.3,0-0.4,0h-3.6
	c-1.3-0.1-2.5,0.8-2.6,2.2c0,0.1,0,0.3,0,0.4v7.9c-0.1,1.3,0.8,2.5,2.2,2.6c0.1,0,0.3,0,0.4,0L129.1,14.1z M136.9,4.2
	c-1.3-0.1-2.4,0.9-2.5,2.2c0,0.1,0,0.2,0,0.4v4.8c-0.1,1.3,0.9,2.4,2.2,2.5c0.1,0,0.2,0,0.4,0h2.5c1.3,0.1,2.4-0.9,2.5-2.2
	c0-0.1,0-0.2,0-0.4V6.7c0.1-1.3-0.9-2.4-2.2-2.5c-0.1,0-0.2,0-0.4,0H136.9z M140.8,11.6c0.1,0.7-0.5,1.4-1.2,1.4c0,0-0.1,0-0.1,0
	H137c-0.7,0-1.3-0.6-1.3-1.3c0,0,0-0.1,0-0.1V6.7c-0.1-0.7,0.5-1.4,1.2-1.4c0,0,0.1,0,0.1,0h2.5c0.7,0,1.3,0.6,1.3,1.3
	c0,0,0,0.1,0,0.1L140.8,11.6z M151.1,14h1.2V6.7c0.1-1.3-0.9-2.4-2.2-2.5c-0.1,0-0.2,0-0.4,0h-0.8c-0.7,0-1.4,0.2-1.9,0.7l-1,0.7
	V4.3h-1.2V14h1.2V6.4l1-0.6c0.6-0.4,1.3-0.6,1.9-0.6h0.7c0.7,0,1.3,0.6,1.3,1.3c0,0,0,0.1,0,0.1L151.1,14z M160.9,7.1h1.2V6.6
	c0.1-1.2-0.7-2.2-1.9-2.3c-0.1,0-0.3,0-0.4,0h-2.3c-1.2-0.1-2.2,0.7-2.3,1.9c0,0.1,0,0.3,0,0.4v0.6c0,1.3,0.7,1.9,2.1,2.1l2.8,0.5
	c0.8,0.1,1.1,0.3,1.1,1v0.9c0,0.8-0.3,1.4-1.2,1.4h-2.6c-0.8,0-1.2-0.5-1.2-1.4v-0.6H155v0.7c-0.1,1.2,0.7,2.2,1.9,2.3
	c0.1,0,0.3,0,0.4,0h2.7c1.2,0.1,2.2-0.7,2.3-1.9c0-0.1,0-0.3,0-0.4v-1c0-1.3-0.7-1.9-2.1-2.1l-2.8-0.5c-0.8-0.1-1.1-0.3-1.1-1V6.6
	c0-0.8,0.4-1.4,1.2-1.4h2.2c0.8,0,1.2,0.5,1.2,1.4L160.9,7.1z M166.1,9.4h6.3V6.7c0.1-1.3-0.9-2.4-2.2-2.5c-0.1,0-0.2,0-0.4,0h-2.5
	c-1.3-0.1-2.4,0.9-2.5,2.2c0,0.1,0,0.2,0,0.4v4.8c-0.1,1.3,0.9,2.4,2.2,2.5c0.1,0,0.2,0,0.4,0h2.4c1.3,0.1,2.4-0.9,2.5-2.2
	c0-0.1,0-0.2,0-0.4V11h-1.2v0.6c0.1,0.7-0.5,1.4-1.2,1.4c0,0-0.1,0-0.1,0h-2.4c-0.7,0-1.3-0.6-1.3-1.3c0,0,0-0.1,0-0.1V9.4z
	 M169.8,5.3c0.7,0,1.3,0.6,1.3,1.3c0,0,0,0.1,0,0.1v1.7h-5V6.7c-0.1-0.7,0.5-1.4,1.2-1.4c0,0,0.1,0,0.1,0L169.8,5.3z M180.2,5.3V4.2
	h-0.9c-0.7,0-1.4,0.2-1.9,0.7l-1,0.7V4.3h-1.2V14h1.2V6.5l1-0.6c0.6-0.4,1.3-0.6,1.9-0.6L180.2,5.3z M189.5,4.3h-1.3l-2.7,8.8
	l-2.7-8.8h-1.3l3.2,9.7h1.6L189.5,4.3z M193.8,4.2c-1.3-0.1-2.4,0.9-2.5,2.2c0,0.1,0,0.2,0,0.4v0.1h1.2V6.7
	c-0.1-0.7,0.5-1.4,1.2-1.4c0,0,0.1,0,0.1,0h2.1c0.7,0,1.3,0.6,1.3,1.3c0,0.1,0,0.1,0,0.2v1.8c-1.1-0.2-2.2-0.3-3.3-0.3h-0.5
	c-1.3-0.1-2.4,0.9-2.5,2.2c0,0.1,0,0.2,0,0.4v0.9c-0.1,1.3,0.9,2.4,2.2,2.5c0.1,0,0.2,0,0.4,0h0.9c0.7,0,1.4-0.2,1.9-0.7l1-0.7V14
	h1.2V6.7c0.1-1.3-0.9-2.4-2.2-2.5c-0.1,0-0.2,0-0.4,0L193.8,4.2z M197.3,9.2v2.7l-1,0.6c-0.6,0.4-1.3,0.6-1.9,0.6h-0.9
	c-0.7,0-1.3-0.6-1.3-1.3c0,0,0-0.1,0-0.1v-0.9c-0.1-0.7,0.5-1.4,1.2-1.4c0,0,0.1,0,0.1,0L197.3,9.2z M203.5,5.3h3.2v-1h-3.2V1h-1.2
	v3.2h-1.7v1h1.7v6.2c-0.1,1.3,0.9,2.4,2.2,2.5c0.1,0,0.2,0,0.4,0h1.9v-1h-1.9c-0.7,0-1.3-0.6-1.3-1.3c0,0,0-0.1,0-0.1L203.5,5.3z
	 M211.3,4.2c-1.3-0.1-2.4,0.9-2.5,2.2c0,0.1,0,0.2,0,0.4v4.8c-0.1,1.3,0.9,2.4,2.2,2.5c0.1,0,0.2,0,0.4,0h2.5
	c1.3,0.1,2.4-0.9,2.5-2.2c0-0.1,0-0.2,0-0.4V6.7c0.1-1.3-0.9-2.4-2.2-2.5c-0.1,0-0.2,0-0.4,0H211.3z M215.1,11.6
	c0.1,0.7-0.5,1.4-1.2,1.4c0,0-0.1,0-0.1,0h-2.5c-0.7,0-1.3-0.6-1.3-1.3c0,0,0-0.1,0-0.1V6.7c-0.1-0.7,0.5-1.4,1.2-1.4
	c0,0,0.1,0,0.1,0h2.5c0.7,0,1.3,0.6,1.3,1.3c0,0,0,0.1,0,0.1L215.1,11.6z M224.3,5.4V4.2h-0.9c-0.7,0-1.4,0.2-1.9,0.7l-1,0.7V4.3
	h-1.2V14h1.2V6.5l1-0.6c0.6-0.4,1.3-0.6,1.9-0.6L224.3,5.4z"/>
<path class="st1" d="M62.1,1v1.7h-2.4v8.4h-2.1V2.6h-2.4V1H62.1z"/>
<path class="st1" d="M63,11.1V1h5.5v1.6h-3.4V5h3.1v1.6h-3.1v3h3.5v1.6H63z"/>
<path class="st1" d="M70.1,11.1V1h2.1v8.4h3.2v1.7H70.1z"/>
<path class="st1" d="M76.3,11.1V1h5.5v1.6h-3.4V5h3.1v1.6h-3.1v3h3.5v1.6H76.3z"/>
<path class="st1" d="M83.3,1h3.5c2.8,0,3.3,1.8,3.3,5c0,1.6,0.2,5.1-3.4,5.1h-3.4V1z M85.4,9.5h1c1.3,0,1.5-1,1.5-3.5
	c0-1.9,0-3.5-1.5-3.5h-1.1V9.5z"/>
<path class="st1" d="M93.3,7.6L90.6,1h2.3l1.5,4.3L96.1,1h2.2l-2.8,6.6v3.5h-2.1V7.6z"/>
<path class="st1" d="M99.2,11.1V1h2.9l2.7,7h0V1h2v10.1H104l-2.8-7.4h0v7.4H99.2z"/>
<path class="st1" d="M108.6,11.1V1h5.5v1.6h-3.4V5h3.1v1.6h-3.1v3h3.5v1.6H108.6z"/>
<path class="st1" d="M56,24.4V14.3h5.3v1.6h-3.1v2.6h3V20h-3v4.4H56z"/>
<path class="st1" d="M62.3,24.4V14.3h2.1v8.4h3.2v1.7H62.3z"/>
<path class="st1" d="M68.5,24.4V14.3h2.1v10.1H68.5z"/>
<path class="st1" d="M74.2,24.4h-2.1V14.3H76c1.4,0,2.4,0.9,2.4,2.6c0,1.3-0.5,2.3-1.9,2.5v0c0.5,0.1,1.8,0.2,1.8,2
	c0,0.6,0,2.5,0.2,3h-2.1c-0.3-0.6-0.2-1.3-0.2-2c0-1.2,0.1-2.2-1.5-2.2h-0.5V24.4z M74.2,18.7h0.9c0.8,0,1.1-0.8,1.1-1.5
	c0-1-0.4-1.3-1.1-1.3h-0.9V18.7z"/>
<polygon class="st1" points="27.8,0.2 42,0.2 52.4,10.3 37.8,10.3 "/>
<polygon class="st1" points="25.1,0.2 10.8,0.2 0.8,10.3 15.1,10.3 "/>
<polygon class="st1" points="27.1,1.1 36.9,11 36.9,24.9 27.1,15.2 "/>
<polygon class="st1" points="26,1.1 26,15.2 15.8,24.9 15.8,11.3 "/>
</svg>
